HIERARCHY
ROOT Hips
{
	OFFSET -3.958830 18.904000 13.208200
	CHANNELS 6 Xposition Yposition Zposition Zrotation Yrotation Xrotation 
	JOINT LHipJoint
	{
		OFFSET 0.000000 0.000000 0.000000
		CHANNELS 3 Zrotation Yrotation Xrotation
		JOINT LeftUpLeg
		{
			OFFSET 1.800000 -1.400000 0.085000
			CHANNELS 3 Zrotation Yrotation Xrotation
			JOINT LeftLeg
			{
				OFFSET 2.215000 -6.000000 0.000000
				CHANNELS 3 Zrotation Yrotation Xrotation
				JOINT LeftFoot
				{
					OFFSET 2.500000 -6.900000 0.000000
					CHANNELS 3 Zrotation Yrotation Xrotation
					JOINT LeftToeBase
					{
						OFFSET 0.200000 -0.500000 1.950000
						CHANNELS 3 Zrotation Yrotation Xrotation
						End Site
						{
							OFFSET 0.000000 0.000000 0.000000
						}
					}
				}
			}
		}
	}
	JOINT RHipJoint
	{
		OFFSET 0.000000 0.000000 0.000000
		CHANNELS 3 Zrotation Yrotation Xrotation
		JOINT RightUpLeg
		{
			OFFSET -1.800000 -1.400000 0.085000
			CHANNELS 3 Zrotation Yrotation Xrotation
			JOINT RightLeg
			{
				OFFSET -2.215000 -6.000000 0.000000
				CHANNELS 3 Zrotation Yrotation Xrotation
				JOINT RightFoot
				{
					OFFSET -2.500000 -6.900000 0.000000
					CHANNELS 3 Zrotation Yrotation Xrotation
					JOINT RightToeBase
					{
						OFFSET -0.200000 -0.500000 1.950000
						CHANNELS 3 Zrotation Yrotation Xrotation
						End Site
						{
							OFFSET 0.000000 0.000000 0.000000
						}
					}
				}
			}
		}
	}
	JOINT LowerBack
	{
		OFFSET 0.000000 0.000000 0.000000
		CHANNELS 3 Zrotation Yrotation Xrotation
		JOINT Spine
		{
			OFFSET -0.087000 1.940000 -0.288900
			CHANNELS 3 Zrotation Yrotation Xrotation
			JOINT Spine1
			{
				OFFSET 0.000000 1.950000 0.060000
				CHANNELS 3 Zrotation Yrotation Xrotation
				JOINT Neck
				{
					OFFSET 0.000000 0.000000 0.000000
					CHANNELS 3 Zrotation Yrotation Xrotation
					JOINT Neck1
					{
						OFFSET 0.000000 1.600000 0.340000
						CHANNELS 3 Zrotation Yrotation Xrotation
						JOINT Head
						{
							OFFSET 0.000000 1.667000 -0.240000
							CHANNELS 3 Zrotation Yrotation Xrotation
							End Site
							{
								OFFSET 0.000000 0.000000 0.000000
							}
						}
					}
				}
				JOINT LeftShoulder
				{
					OFFSET 0.000000 0.000000 0.000000
					CHANNELS 3 Zrotation Yrotation Xrotation
					JOINT LeftArm
					{
						OFFSET 2.700000 1.550000 -0.730000
						CHANNELS 3 Zrotation Yrotation Xrotation
						JOINT LeftForeArm
						{
							OFFSET 5.450000 0.000000 0.000000
							CHANNELS 3 Zrotation Yrotation Xrotation
							JOINT LeftHand
							{
								OFFSET 3.450000 0.000000 0.000000
								CHANNELS 3 Zrotation Yrotation Xrotation
								JOINT LeftHandIndex1
								{
									OFFSET 0.750000 0.000000 0.000000
									CHANNELS 3 Zrotation Yrotation Xrotation
									End Site
									{
										OFFSET 0.000000 0.000000 0.000000
									}
								}
							}
						}
					}
				}
				JOINT RightShoulder
				{
					OFFSET 0.000000 0.000000 0.000000
					CHANNELS 3 Zrotation Yrotation Xrotation
					JOINT RightArm
					{
						OFFSET -2.700000 1.550000 -0.730000
						CHANNELS 3 Zrotation Yrotation Xrotation
						JOINT RightForeArm
						{
							OFFSET -5.450000 0.000000 0.000000
							CHANNELS 3 Zrotation Yrotation Xrotation
							JOINT RightHand
							{
								OFFSET -3.450000 0.000000 0.000000
								CHANNELS 3 Zrotation Yrotation Xrotation
								JOINT RightHandIndex1
								{
									OFFSET -0.750000 0.000000 0.000000
									CHANNELS 3 Zrotation Yrotation Xrotation
									End Site
									{
										OFFSET 0.000000 0.000000 0.000000
									}
								}
							}
						}
					}
				}
			}
		}
	}
}
MOTION
Frames: 4
Frame Time: 0.016667
-0.123180 16.444520 -2.414390 -9.133772 -27.301064 -25.005521 -15.297075 14.453998 2.675973 8.505492 -1.711555 -5.597354 7.853704 9.733699 63.386094 0.742631 11.044222 0.427078 0.874690 0.783310 1.145800 17.981641 -10.560738 3.399366 4.491615 2.165203 4.567359 7.895480 -10.825294 40.258162 -1.517889 -7.296468 1.564970 0.498970 -0.519450 0.296280 -2.434663 -3.845780 -8.337720 12.029194 -0.184441 23.262654 5.962165 -4.599997 39.545633 4.543120 -4.844782 -25.866718 -11.743336 13.555569 52.367270 -17.419980 14.481060 -23.604850 -6.430843 -41.505474 16.642870 -28.309670 -12.745373 -4.921006 29.181608 -9.945606 -5.918163 -3.568612 3.244767 0.687760 -0.135750 0.578510 -0.140720 -0.374191 49.067457 9.865245 3.409633 36.261802 -10.293539 -18.452814 1.271768 -3.183133 3.099780 -1.395706 -0.005540 0.053870 -0.270810 -0.447350 
-0.126400 16.424610 -2.409840 -9.398316 -27.455313 -25.131666 -15.326720 14.459131 2.699323 9.807458 -1.870658 -4.797257 6.413591 10.928490 63.733474 0.773919 11.265159 0.338188 0.885040 0.803200 1.174980 17.970481 -10.461512 3.372599 4.912286 2.035689 4.726320 7.290305 -10.686153 40.658178 -1.534902 -7.292351 1.556109 0.508030 -0.545150 0.297910 -2.358919 -4.019361 -8.372279 11.649540 -0.591160 22.889929 6.399778 -5.362431 40.083712 4.195808 -4.681326 -25.944386 -11.590908 13.949468 53.475609 -17.960640 15.059280 -24.211200 -4.445948 -42.530633 17.355567 -30.026371 -12.799798 -3.508788 28.300306 -7.114879 -4.880630 -3.584607 3.216206 0.697460 -0.139990 0.600130 -0.160540 -1.727670 49.387428 9.260306 4.726161 36.734371 -11.151492 -20.178039 2.487983 -3.696217 3.032732 -1.447798 0.000510 0.054220 -0.270510 -0.461650 
-0.138060 16.425530 -2.397660 -9.758386 -27.516163 -25.154561 -15.374311 14.519221 2.707855 10.939543 -1.971926 -3.892711 5.447208 11.573058 63.262617 0.775971 11.304153 0.317403 0.896510 0.811020 1.211750 17.930333 -10.360001 3.374342 5.460215 1.793015 5.160475 6.629674 -10.481916 40.800288 -1.557846 -7.256407 1.561388 0.503840 -0.580270 0.303310 -2.193515 -4.279394 -8.442000 11.236615 -0.881823 22.498215 7.046646 -6.173055 40.863036 4.136288 -4.535994 -26.644717 -11.927786 14.075621 55.234852 -19.050930 15.261120 -24.704670 -3.125704 -43.648000 17.899639 -31.203202 -13.260267 -2.280221 27.319273 -4.124628 -3.858307 -3.592391 3.179026 0.721350 -0.155890 0.634210 -0.169930 -2.919205 49.946271 9.538022 5.979663 36.203248 -13.310731 -23.105328 6.159729 -4.808157 2.873006 -1.509821 0.007510 0.051200 -0.282780 -0.475320 
-0.150970 16.429360 -2.392210 -9.532763 -27.600339 -25.327802 -15.446134 14.632865 2.743341 11.317223 -2.022081 -3.305312 4.670032 11.971515 62.518333 0.780748 11.218438 0.315797 0.924670 0.846050 1.248260 17.860112 -10.247494 3.342784 5.710692 1.752431 5.144624 5.634308 -10.163167 41.507448 -1.583991 -7.214760 1.563965 0.497250 -0.653770 0.304550 -1.926618 -4.657884 -8.527490 10.182590 -1.053595 22.596334 7.486409 -6.465468 40.872436 4.181948 -4.408689 -27.273557 -12.643806 14.385391 57.342944 -20.024670 15.244720 -25.925530 -3.938103 -44.289930 18.322910 -30.923859 -13.392517 -1.333736 26.030637 -1.266982 -2.873073 -3.581095 3.148546 0.748600 -0.204110 0.685780 -0.185470 -2.237695 50.526633 9.830950 7.001135 36.163285 -15.167188 -25.405833 9.823146 -5.916975 2.754214 -1.513627 0.043720 0.024930 -0.302830 -0.483420 
